<svg xmlns="http://www.w3.org/2000/svg" viewBox="0 0 512 512">
  <defs>
    <linearGradient id="bg" x1="0" y1="0" x2="1" y2="1">
      <stop offset="0" stop-color="#1f2f3d" />
      <stop offset="1" stop-color="#0f151d" />
    </linearGradient>
    <linearGradient id="steam" x1="0" y1="0" x2="0" y2="1">
      <stop offset="0" stop-color="#ff9f43" />
      <stop offset="1" stop-color="#ff6b3d" />
    </linearGradient>
  </defs>
  <rect width="512" height="512" rx="112" fill="url(#bg)" />
  <rect x="86" y="86" width="340" height="340" rx="92" fill="none" stroke="#3b4d5f" stroke-width="14" />
  <path d="M160 272h192c0 54-43 98-96 98s-96-44-96-98z" fill="#223447" />
  <path d="M181 247c13-24 33-39 75-39 41 0 62 15 75 39" stroke="#89d0ff" stroke-width="16" stroke-linecap="round" fill="none" />
  <path d="M218 140c15 15 15 36 0 51" stroke="url(#steam)" stroke-width="14" stroke-linecap="round" fill="none" />
  <path d="M258 126c18 18 18 43 0 61" stroke="url(#steam)" stroke-width="14" stroke-linecap="round" fill="none" />
  <path d="M298 140c15 15 15 36 0 51" stroke="url(#steam)" stroke-width="14" stroke-linecap="round" fill="none" />
  <circle cx="256" cy="272" r="9" fill="#ffc06a" />
  <text x="256" y="338" text-anchor="middle" font-size="64" font-family="Arial, sans-serif" fill="#dbe7f3" font-weight="700">WA</text>
</svg>
